{
	"asset":{
		"version":"2.0",
		"generator":"Created using the official Cinema 4D glTF Exporter 1.000x284978"
	},
	"scenes":[{
		"nodes":[0]
	}],
	"nodes":[{
		"name":"Curve_left_long_test",
		"translation":[-50.0,
		-400.0,
		-200.0],
		"rotation":[0.0,
		-0.7071067690849304,
		0.0,
		0.7071067690849304],
		"scale":[1.0,
		1.0,
		1.0],
		"children":[1,
		3,
		5,
		7]
	},
	{
		"name":"Main",
		"children":[2]
	},
	{
		"name":"Cube",
		"translation":[0.0,
		0.0,
		1.9643867187459174e-15],
		"rotation":[0.0,
		-0.7071067690849304,
		0.0,
		-0.7071067690849304],
		"scale":[1.0,
		1.0,
		1.0],
		"mesh":0
	},
	{
		"name":"Ring",
		"translation":[0.0,
		122.71532440185547,
		1.6175241010431448e-14],
		"rotation":[0.0,
		0.0,
		0.0,
		-1.0],
		"scale":[1.0,
		1.0,
		1.0],
		"children":[4]
	},
	{
		"name":"ring 2",
		"translation":[0.0,
		0.0,
		1.9643867187459174e-15],
		"rotation":[0.0,
		-0.7071067690849304,
		0.0,
		-0.7071067690849304],
		"scale":[1.0,
		1.0,
		1.0],
		"mesh":1
	},
	{
		"name":"Bricks",
		"translation":[-3.808215618133545,
		344.9520568847656,
		148.36187744140626],
		"rotation":[0.0,
		0.0,
		0.0,
		-1.0],
		"scale":[1.0,
		1.0,
		1.0],
		"children":[6]
	},
	{
		"name":"Bricks.2",
		"translation":[8.563974380493164,
		-984.5221557617188,
		-65.37059783935547],
		"rotation":[0.0,
		-0.7071067690849304,
		0.0,
		-0.7071067690849304],
		"scale":[1.0,
		1.0,
		1.0],
		"mesh":2
	},
	{
		"name":"Tiles",
		"translation":[10.0,
		399.9283142089844,
		10.0],
		"rotation":[0.0,
		-0.7071067690849304,
		0.0,
		-0.7071067690849304],
		"scale":[1.0,
		1.0,
		1.0],
		"children":[8]
	},
	{
		"name":"Tiles.4",
		"translation":[-40.0,
		0.0,
		40.0],
		"rotation":[0.0,
		0.0,
		0.0,
		-1.0],
		"scale":[1.0,
		1.0,
		1.0],
		"mesh":3
	}],
	"meshes":[{
		"name":"Cube",
		"primitives":[{
			"attributes":{
				"POSITION":1,
				"NORMAL":2,
				"TEXCOORD_0":3
			},
			"indices":0,
			"material":0
		}]
	},
	{
		"name":"ring 2",
		"primitives":[{
			"attributes":{
				"POSITION":5,
				"NORMAL":6,
				"TEXCOORD_0":7
			},
			"indices":4,
			"material":0
		}]
	},
	{
		"name":"Bricks.2",
		"primitives":[{
			"attributes":{
				"POSITION":9,
				"NORMAL":10,
				"TEXCOORD_0":11
			},
			"indices":8,
			"material":0
		}]
	},
	{
		"name":"Tiles.4",
		"primitives":[{
			"attributes":{
				"POSITION":13,
				"NORMAL":14,
				"TEXCOORD_0":15
			},
			"indices":12,
			"material":0
		}]
	}],
	"accessors":[{
		"max":[1948],
		"bufferView":0,
		"type":"SCALAR",
		"componentType":5123,
		"count":7368,
		"byteOffset":0,
		"min":[0]
	},
	{
		"max":[100.0,
		410.0,
		200.0],
		"bufferView":1,
		"type":"VEC3",
		"componentType":5126,
		"count":1949,
		"byteOffset":0,
		"min":[-200.0,
		-2100.052490234375,
		-100.0]
	},
	{
		"max":[1.0,
		1.0,
		1.0],
		"bufferView":1,
		"type":"VEC3",
		"componentType":5126,
		"count":1949,
		"byteOffset":12,
		"min":[-1.0,
		-1.0,
		-1.0]
	},
	{
		"max":[1.0,
		1.0],
		"bufferView":1,
		"type":"VEC2",
		"componentType":5126,
		"count":1949,
		"byteOffset":24,
		"min":[0.0,
		0.0]
	},
	{
		"max":[47],
		"bufferView":2,
		"type":"SCALAR",
		"componentType":5123,
		"count":72,
		"byteOffset":0,
		"min":[0]
	},
	{
		"max":[110.0,
		15.0,
		210.0],
		"bufferView":3,
		"type":"VEC3",
		"componentType":5126,
		"count":48,
		"byteOffset":0,
		"min":[-210.0,
		-15.0,
		-110.0]
	},
	{
		"max":[1.0,
		1.0,
		1.0],
		"bufferView":3,
		"type":"VEC3",
		"componentType":5126,
		"count":48,
		"byteOffset":12,
		"min":[-1.0,
		-1.0,
		-1.0]
	},
	{
		"max":[1.0,
		1.0],
		"bufferView":3,
		"type":"VEC2",
		"componentType":5126,
		"count":48,
		"byteOffset":24,
		"min":[0.0,
		0.0]
	},
	{
		"max":[11255],
		"bufferView":4,
		"type":"SCALAR",
		"componentType":5123,
		"count":16884,
		"byteOffset":0,
		"min":[0]
	},
	{
		"max":[184.29754638671876,
		1021.1962890625,
		196.5229034423828],
		"bufferView":5,
		"type":"VEC3",
		"componentType":5126,
		"count":11256,
		"byteOffset":0,
		"min":[-118.23590850830078,
		-1391.3720703125,
		-106.0770492553711]
	},
	{
		"max":[1.0,
		1.0,
		1.0],
		"bufferView":5,
		"type":"VEC3",
		"componentType":5126,
		"count":11256,
		"byteOffset":12,
		"min":[-1.0,
		-1.0,
		-1.0]
	},
	{
		"max":[1.0,
		1.0],
		"bufferView":5,
		"type":"VEC2",
		"componentType":5126,
		"count":11256,
		"byteOffset":24,
		"min":[0.0,
		0.0]
	},
	{
		"max":[3039],
		"bufferView":6,
		"type":"SCALAR",
		"componentType":5123,
		"count":5760,
		"byteOffset":0,
		"min":[0]
	},
	{
		"max":[134.42367553710938,
		0.5253720879554749,
		146.08897399902345],
		"bufferView":7,
		"type":"VEC3",
		"componentType":5126,
		"count":3040,
		"byteOffset":0,
		"min":[-147.19223022460938,
		-0.776467502117157,
		-134.42367553710938]
	},
	{
		"max":[0.9642982482910156,
		1.0,
		0.9642982482910156],
		"bufferView":7,
		"type":"VEC3",
		"componentType":5126,
		"count":3040,
		"byteOffset":12,
		"min":[-0.9642982482910156,
		-1.0,
		-0.9642982482910156]
	},
	{
		"max":[1.0,
		1.0],
		"bufferView":7,
		"type":"VEC2",
		"componentType":5126,
		"count":3040,
		"byteOffset":24,
		"min":[0.0,
		0.0]
	}],
	"bufferViews":[{
		"buffer":0,
		"byteOffset":0,
		"byteLength":14736,
		"target":34963
	},
	{
		"buffer":0,
		"byteOffset":14736,
		"byteLength":62368,
		"target":34962,
		"byteStride":32
	},
	{
		"buffer":1,
		"byteOffset":0,
		"byteLength":144,
		"target":34963
	},
	{
		"buffer":1,
		"byteOffset":144,
		"byteLength":1536,
		"target":34962,
		"byteStride":32
	},
	{
		"buffer":2,
		"byteOffset":0,
		"byteLength":33768,
		"target":34963
	},
	{
		"buffer":2,
		"byteOffset":33768,
		"byteLength":360192,
		"target":34962,
		"byteStride":32
	},
	{
		"buffer":3,
		"byteOffset":0,
		"byteLength":11520,
		"target":34963
	},
	{
		"buffer":3,
		"byteOffset":11520,
		"byteLength":97280,
		"target":34962,
		"byteStride":32
	}],
	"buffers":[{
		"uri":"data:application/octet-stream;base64,",
		"byteLength":77104
	},
	{
		"uri":"data:application/octet-stream;base64,",
		"byteLength":1680
	},
	{
		"uri":"data:application/octet-stream;base64,",
		"byteLength":393960
	},
	{
		"uri":"data:application/octet-stream;base64,",
		"byteLength":108800
	}],
	"materials":[{
		"pbrMetallicRoughness":{
			"baseColorFactor":[0.8,
			0.8,
			0.8,
			1.0],
			"metallicFactor":0.0,
			"roughnessFactor":0.5
		},
		"emissiveFactor":[0.0,
		0.0,
		0.0],
		"alphaMode":"OPAQUE",
		"doubleSided":false,
		"name":"Mat"
	}]
}