{
	"nodes":[{
		"scale":[1.0,
		1.0,
		1.0],
		"name":"Holkehle",
		"translation":[362.5091247558594,
		0.0,
		0.0],
		"rotation":[0.0,
		0.0,
		0.0,
		-1.0],
		"children":[1]
	},
	{
		"name":"Holkehle",
		"mesh":0
	}],
	"asset":{
		"version":"2.0",
		"generator":"Created using the official Cinema 4D glTF Exporter 1.000x284978"
	},
	"scenes":[{
		"nodes":[0]
	}],
	"materials":[{
		"doubleSided":false,
		"pbrMetallicRoughness":{
			"baseColorFactor":[0.6174999999999999,
			0.8668749999999997,
			0.9500000000000001,
			1.0],
			"metallicFactor":1.0,
			"roughnessFactor":1.0
		},
		"emissiveFactor":[0.0,
		0.0,
		0.0],
		"name":"HK 1",
		"alphaMode":"OPAQUE"
	}],
	"meshes":[{
		"name":"Holkehle",
		"primitives":[{
			"attributes":{
				"POSITION":1,
				"NORMAL":2,
				"TEXCOORD_0":3
			},
			"indices":0,
			"material":0
		}]
	}],
	"accessors":[{
		"bufferView":0,
		"type":"SCALAR",
		"componentType":5123,
		"max":[35],
		"count":102,
		"byteOffset":0,
		"min":[0]
	},
	{
		"bufferView":1,
		"type":"VEC3",
		"componentType":5126,
		"max":[0.0,
		400.14453125,
		200.23886108398438],
		"count":36,
		"byteOffset":0,
		"min":[-780.0,
		-0.6725841760635376,
		-350.2735290527344]
	},
	{
		"bufferView":1,
		"type":"VEC3",
		"componentType":5126,
		"max":[0.0,
		-0.0015204641968011857,
		0.0],
		"count":36,
		"byteOffset":12,
		"min":[0.0,
		-1.0,
		-0.9999988675117493]
	},
	{
		"bufferView":1,
		"type":"VEC2",
		"componentType":5126,
		"max":[1.0,
		1.0],
		"count":36,
		"byteOffset":24,
		"min":[0.0,
		0.0]
	}],
	"bufferViews":[{
		"buffer":0,
		"byteOffset":0,
		"byteLength":204,
		"target":34963
	},
	{
		"buffer":0,
		"byteOffset":204,
		"byteLength":1152,
		"target":34962,
		"byteStride":32
	}],
	"buffers":[{
		"uri":"data:application/octet-stream;base64,",
		"byteLength":1356
	}]
}